<?xml version="1.0" encoding="UTF-8"?>
<!DOCTYPE svg PUBLIC "-//W3C//DTD SVG 1.1//EN" "http://www.w3.org/Graphics/SVG/1.1/DTD/svg11.dtd">
<svg xmlns="http://www.w3.org/2000/svg" version="1.1" width="1200px" height="675px" style="shape-rendering:geometricPrecision; text-rendering:geometricPrecision; image-rendering:optimizeQuality; fill-rule:evenodd; clip-rule:evenodd" xmlns:xlink="http://www.w3.org/1999/xlink">
<g><path style="opacity:1" fill="#4285f9" d="M 470.5,339.5 C 470.722,342.39 470.055,345.057 468.5,347.5C 469.127,348.417 469.461,349.417 469.5,350.5C 467.568,356.369 465.068,362.036 462,367.5C 456.904,375.362 452.071,383.362 447.5,391.5C 444.514,396.801 441.514,402.135 438.5,407.5C 436.173,407.665 434.007,408.331 432,409.5C 430.325,408.405 429.158,406.905 428.5,405C 427.167,404.667 425.833,404.333 424.5,404C 417.144,396.21 410.31,388.044 404,379.5C 402.266,378.751 400.433,378.251 398.5,378C 393.49,372.293 388.49,366.626 383.5,361C 381.226,360.53 379.226,359.53 377.5,358C 377.833,357.667 378.167,357.333 378.5,357C 374.158,353.656 370.825,349.489 368.5,344.5C 360.925,340.422 355.092,334.422 351,326.5C 348.076,326.374 345.409,325.041 343,322.5C 342.51,321.207 342.343,319.873 342.5,318.5C 340.61,318.703 339.11,318.037 338,316.5C 337.667,316.833 337.333,317.167 337,317.5C 334.39,313.382 331.557,309.382 328.5,305.5C 326.664,304.081 324.664,302.914 322.5,302C 323.285,299.557 323.119,297.057 322,294.5C 319.499,294.05 317.333,293.05 315.5,291.5C 316.724,289.161 316.724,286.828 315.5,284.5C 315.81,286.201 315.31,287.868 314,289.5C 309.276,283.165 303.943,277.498 298,272.5C 296.382,272.598 294.882,272.598 293.5,272.5C 288.098,270.128 282.765,267.795 277.5,265.5C 277.389,264.883 277.056,264.383 276.5,264C 274.134,263.56 271.801,263.06 269.5,262.5C 269.167,262.5 268.833,262.5 268.5,262.5C 258.49,258.191 247.99,257.524 237,260.5C 235.634,260.294 234.301,259.96 233,259.5C 231.251,259.748 230.418,260.748 230.5,262.5C 228.113,262.912 226.113,263.912 224.5,265.5C 219.039,267.067 214.039,269.4 209.5,272.5C 204.864,272.148 201.864,274.148 200.5,278.5C 190.994,286.676 183.328,296.343 177.5,307.5C 175.967,309.355 174.3,311.188 172.5,313C 172.833,313.333 173.167,313.667 173.5,314C 172.253,319.885 170.586,325.551 168.5,331C 168.833,331.333 169.167,331.667 169.5,332C 168.686,338.753 168.186,345.586 168,352.5C 166.372,353.819 166.539,355.152 168.5,356.5C 169.086,356.291 169.586,355.957 170,355.5C 170.608,357.066 171.442,358.4 172.5,359.5C 172.66,361.153 173.326,362.486 174.5,363.5C 174.603,366.636 175.603,369.302 177.5,371.5C 179.306,376.446 181.639,381.112 184.5,385.5C 185.433,388.37 187.1,390.704 189.5,392.5C 192.833,395.5 196.167,398.5 199.5,401.5C 201.969,405.719 205.636,408.719 210.5,410.5C 213.611,414.753 217.277,418.586 221.5,422C 224.963,422.788 227.963,424.454 230.5,427C 227.833,427.667 227.833,428.333 230.5,429C 230.167,429.333 229.833,429.667 229.5,430C 231.667,431.5 233.5,433.333 235,435.5C 236.147,434.542 237.147,434.875 238,436.5C 238.897,439.292 240.063,441.959 241.5,444.5C 253.604,456.762 266.604,469.595 280.5,483C 281.5,483.333 282.5,483.667 283.5,484C 286.152,488.317 289.485,491.984 293.5,495C 292.833,495.333 292.167,495.667 291.5,496C 293.167,496.333 294.833,496.667 296.5,497C 299.032,501.074 302.032,504.74 305.5,508C 311.429,510.427 315.429,514.594 317.5,520.5C 321.255,524.911 325.922,529.078 331.5,533C 330.944,533.383 330.611,533.883 330.5,534.5C 269.929,534.169 209.429,534.502 149,535.5C 146.769,533.376 144.269,531.709 141.5,530.5C 140.306,529.728 139.306,528.728 138.5,527.5C 138.167,526.5 137.5,525.833 136.5,525.5C 134.453,523.45 132.786,521.117 131.5,518.5C 131.573,516.973 130.906,515.973 129.5,515.5C 98.9495,462.186 67.7829,408.186 36,353.5C 35.0991,345.421 35.4325,337.421 37,329.5C 58.9624,291.373 81.1291,253.373 103.5,215.5C 104.404,214.791 104.737,213.791 104.5,212.5C 105.5,212.167 106.167,211.5 106.5,210.5C 115.136,193.898 124.303,177.564 134,161.5C 138.117,155.722 143.617,151.889 150.5,150C 219.167,149.333 287.833,149.333 356.5,150C 363.479,152.641 368.979,157.141 373,163.5C 403.86,216.444 434.527,269.444 465,322.5C 467.45,327.342 469.617,332.342 471.5,337.5C 471.137,338.183 470.804,338.85 470.5,339.5 Z"/></g>
<g><path style="opacity:0.993" fill="#767676" d="M 618.5,162.5 C 637.544,161.706 654.877,166.706 670.5,177.5C 673.701,179.866 676.367,182.7 678.5,186C 673.697,191.971 668.363,197.471 662.5,202.5C 640.482,183.082 616.482,181.582 590.5,198C 567.979,219.266 563.479,243.766 577,271.5C 593.861,295.454 616.361,303.287 644.5,295C 661.982,288.071 671.815,275.571 674,257.5C 657.241,258.658 640.407,258.825 623.5,258C 622.179,250.197 622.179,242.363 623.5,234.5C 647.826,233.334 672.16,233.167 696.5,234C 703.789,275.094 688.122,303.427 649.5,319C 601.212,329.933 566.545,313.266 545.5,269C 535.977,232.814 545.643,202.48 574.5,178C 587.983,169.074 602.649,163.907 618.5,162.5 Z"/></g>
<g><path style="opacity:0.989" fill="#767676" d="M 1034.5,168.5 C 1042.75,168.184 1050.92,168.518 1059,169.5C 1059.83,219.17 1059.67,268.837 1058.5,318.5C 1050.56,319.469 1042.56,319.802 1034.5,319.5C 1034.5,269.167 1034.5,218.833 1034.5,168.5 Z"/></g>
<g><path style="opacity:0.027" fill="#686e7c" d="M 106.5,210.5 C 106.167,211.5 105.5,212.167 104.5,212.5C 104.5,211.167 105.167,210.5 106.5,210.5 Z"/></g>
<g><path style="opacity:0.192" fill="#6075aa" d="M 104.5,212.5 C 104.737,213.791 104.404,214.791 103.5,215.5C 103.062,215.565 102.728,215.399 102.5,215C 103.066,214.005 103.733,213.172 104.5,212.5 Z"/></g>
<g><path style="opacity:0.993" fill="#767676" d="M 748.5,218.5 C 770.555,217.112 787.722,225.446 800,243.5C 813.225,275.804 805.392,300.637 776.5,318C 749.197,327.813 727.197,321.147 710.5,298C 697.355,272.86 701.022,250.193 721.5,230C 729.622,223.934 738.622,220.101 748.5,218.5 Z M 749.5,241.5 C 766.292,240.084 776.792,247.084 781,262.5C 780.911,267.366 781.077,272.2 781.5,277C 777.199,294.292 766.199,301.625 748.5,299C 733.159,293.167 726.325,282 728,265.5C 730.54,253.137 737.707,245.137 749.5,241.5 Z"/></g>
<g><path style="opacity:0.993" fill="#767676" d="M 858.5,218.5 C 880.247,217.625 897.414,225.958 910,243.5C 922.836,273.026 916.336,297.193 890.5,316C 886.038,318.23 881.372,319.897 876.5,321C 848.228,325.287 828.061,314.787 816,289.5C 807.707,263.382 814.873,242.215 837.5,226C 844.162,222.171 851.162,219.671 858.5,218.5 Z M 859.5,241.5 C 876.048,240.43 886.714,247.764 891.5,263.5C 894.097,275.529 890.431,286.029 880.5,295C 868.46,301.612 856.96,300.779 846,292.5C 834.04,276.446 834.873,261.113 848.5,246.5C 851.994,244.234 855.66,242.567 859.5,241.5 Z"/></g>
<g><path style="opacity:0.991" fill="#767676" d="M 967.5,218.5 C 979.238,217.358 989.405,220.691 998,228.5C 998.497,226.19 998.663,223.857 998.5,221.5C 1006.42,221.185 1014.25,221.518 1022,222.5C 1022.67,256.833 1022.67,291.167 1022,325.5C 1018.63,347.554 1005.96,361.554 984,367.5C 973.747,368.117 963.581,366.951 953.5,364C 945.986,360.21 939.319,355.21 933.5,349C 933.833,348.667 934.167,348.333 934.5,348C 931.083,344.346 928.417,340.679 926.5,337C 927.167,335.667 928.167,334.667 929.5,334C 935.488,332.227 941.321,330.06 947,327.5C 950.427,331.606 953.927,335.772 957.5,340C 969.208,347.481 980.542,346.981 991.5,338.5C 997.323,330.773 999.49,321.773 998,311.5C 994.32,316.267 989.487,319.434 983.5,321C 960.554,324.437 942.72,316.603 930,297.5C 919.622,277.275 920.622,257.942 933,239.5C 941.9,227.978 953.4,220.978 967.5,218.5 Z M 968.5,241.5 C 986.38,239.885 996.88,247.885 1000,265.5C 1000.78,271.654 1000.12,277.654 998,283.5C 989.357,298.825 976.857,302.992 960.5,296C 947.498,284.358 944.665,270.525 952,254.5C 955.962,248.019 961.462,243.686 968.5,241.5 Z"/></g>
<g><path style="opacity:0.992" fill="#767676" d="M 1109.5,218.5 C 1134.02,218.536 1150.85,229.869 1160,252.5C 1160.67,254.833 1160.67,257.167 1160,259.5C 1138.07,268.476 1116.23,277.643 1094.5,287C 1102.74,298.635 1113.74,302.302 1127.5,298C 1133.56,295.271 1138.4,291.104 1142,285.5C 1146.94,288.052 1151.44,291.218 1155.5,295C 1157.02,296.009 1158.69,296.509 1160.5,296.5C 1160.66,297.873 1160.49,299.207 1160,300.5C 1146.09,318.144 1127.92,324.978 1105.5,321C 1086.08,315.912 1073.58,303.745 1068,284.5C 1063.4,263.614 1068.57,245.448 1083.5,230C 1091.16,223.667 1099.82,219.833 1109.5,218.5 Z M 1114.5,240.5 C 1122.07,240.117 1127.74,243.117 1131.5,249.5C 1118.37,255.546 1105.04,261.212 1091.5,266.5C 1090.72,261.967 1091.55,257.634 1094,253.5C 1099.17,246.185 1106,241.851 1114.5,240.5 Z"/></g>
<g><path style="opacity:1" fill="#4e86ea" d="M 268.5,262.5 C 262.458,262.271 256.458,261.604 250.5,260.5C 245.322,260.934 240.322,261.601 235.5,262.5C 233.833,262.5 232.167,262.5 230.5,262.5C 230.418,260.748 231.251,259.748 233,259.5C 234.301,259.96 235.634,260.294 237,260.5C 247.99,257.524 258.49,258.191 268.5,262.5 Z"/></g>
<g><path style="opacity:1" fill="#f9fcfe" d="M 270.5,264.5 C 272.764,265.219 275.097,265.552 277.5,265.5C 282.765,267.795 288.098,270.128 293.5,272.5C 296.842,276.174 300.508,279.508 304.5,282.5C 305.911,284.914 307.911,286.581 310.5,287.5C 314.17,292.842 317.836,298.175 321.5,303.5C 324.275,311.478 326.608,319.478 328.5,327.5C 329.914,338.218 329.58,348.884 327.5,359.5C 326.261,365.97 323.927,371.97 320.5,377.5C 317.995,380.933 315.662,384.599 313.5,388.5C 314.855,390.521 316.521,392.188 318.5,393.5C 323.825,398.791 329.158,404.124 334.5,409.5C 336.167,413.167 338.833,415.833 342.5,417.5C 343.219,419.764 343.552,422.097 343.5,424.5C 342.167,426.167 340.833,427.833 339.5,429.5C 337.704,430.793 336.037,432.293 334.5,434C 332.833,434.667 331.167,434.667 329.5,434C 319.965,424.298 310.298,414.798 300.5,405.5C 300.189,404.522 299.522,403.855 298.5,403.5C 274.174,420.622 247.841,424.289 219.5,414.5C 218.205,413.512 216.872,412.512 215.5,411.5C 209.899,408.694 204.566,405.361 199.5,401.5C 196.167,398.5 192.833,395.5 189.5,392.5C 188.567,389.63 186.9,387.296 184.5,385.5C 181.639,381.112 179.306,376.446 177.5,371.5C 177.097,368.514 176.097,365.848 174.5,363.5C 172.272,349.559 171.938,335.559 173.5,321.5C 174.293,316.608 175.627,311.941 177.5,307.5C 183.328,296.343 190.994,286.676 200.5,278.5C 203.365,276.239 206.365,274.239 209.5,272.5C 214.039,269.4 219.039,267.067 224.5,265.5C 228.314,264.632 231.981,263.632 235.5,262.5C 240.534,262.664 245.534,262.331 250.5,261.5C 257.331,262.896 263.998,263.896 270.5,264.5 Z"/></g>
<g><path style="opacity:1" fill="#cbe3fb" d="M 268.5,262.5 C 268.833,262.5 269.167,262.5 269.5,262.5C 269.833,263.167 270.167,263.833 270.5,264.5C 263.998,263.896 257.331,262.896 250.5,261.5C 245.534,262.331 240.534,262.664 235.5,262.5C 240.322,261.601 245.322,260.934 250.5,260.5C 256.458,261.604 262.458,262.271 268.5,262.5 Z"/></g>
<g><path style="opacity:1" fill="#8ab0ed" d="M 230.5,262.5 C 232.167,262.5 233.833,262.5 235.5,262.5C 231.981,263.632 228.314,264.632 224.5,265.5C 226.113,263.912 228.113,262.912 230.5,262.5 Z"/></g>
<g><path style="opacity:1" fill="#87aeed" d="M 269.5,262.5 C 271.801,263.06 274.134,263.56 276.5,264C 277.056,264.383 277.389,264.883 277.5,265.5C 275.097,265.552 272.764,265.219 270.5,264.5C 270.167,263.833 269.833,263.167 269.5,262.5 Z"/></g>
<g><path style="opacity:1" fill="#6192eb" d="M 209.5,272.5 C 206.365,274.239 203.365,276.239 200.5,278.5C 201.864,274.148 204.864,272.148 209.5,272.5 Z"/></g>
<g><path style="opacity:1" fill="#729de8" d="M 274.5,286.5 C 269.194,285.405 263.86,284.238 258.5,283C 250.815,282.403 243.148,282.57 235.5,283.5C 236.952,282.698 238.618,282.198 240.5,282C 252.393,280.378 263.726,281.878 274.5,286.5 Z"/></g>
<g><path style="opacity:1" fill="#4486f7" d="M 274.5,286.5 C 286.726,292.06 296.059,300.726 302.5,312.5C 302.077,314.781 302.744,316.448 304.5,317.5C 304.755,319.967 305.755,321.967 307.5,323.5C 307.5,324.5 307.5,325.5 307.5,326.5C 308.782,335.831 308.782,345.164 307.5,354.5C 300.557,378.305 284.89,392.972 260.5,398.5C 252.486,398.432 244.486,398.099 236.5,397.5C 234.485,396.076 232.152,395.41 229.5,395.5C 213.921,389.588 202.921,378.922 196.5,363.5C 196.146,361.459 196.146,359.626 196.5,358C 194.784,354.933 193.45,351.767 192.5,348.5C 192.5,348.167 192.5,347.833 192.5,347.5C 192.334,342.489 192.501,337.489 193,332.5C 194.265,328.246 195.098,323.912 195.5,319.5C 195.833,318.833 196.167,318.167 196.5,317.5C 198.088,315.887 199.088,313.887 199.5,311.5C 205.697,299.635 215.031,291.302 227.5,286.5C 230.241,286.293 232.574,285.293 234.5,283.5C 234.833,283.5 235.167,283.5 235.5,283.5C 243.148,282.57 250.815,282.403 258.5,283C 263.86,284.238 269.194,285.405 274.5,286.5 Z"/></g>
<g><path style="opacity:1" fill="#87adee" d="M 304.5,282.5 C 307.089,283.419 309.089,285.086 310.5,287.5C 307.911,286.581 305.911,284.914 304.5,282.5 Z"/></g>
<g><path style="opacity:1" fill="#87aded" d="M 234.5,283.5 C 232.574,285.293 230.241,286.293 227.5,286.5C 229.32,284.552 231.654,283.552 234.5,283.5 Z"/></g>
<g><path style="opacity:1" fill="#5f8adc" d="M 321.5,303.5 C 326.249,310.588 328.583,318.588 328.5,327.5C 326.608,319.478 324.275,311.478 321.5,303.5 Z"/></g>
<g><path style="opacity:1" fill="#3c78e0" d="M 438.5,407.5 C 428.18,425.468 417.847,443.468 407.5,461.5C 406.167,461.5 405.5,462.167 405.5,463.5C 394.452,482.585 383.618,501.919 373,521.5C 369.297,524.867 365.964,528.534 363,532.5C 362.667,532.167 362.333,531.833 362,531.5C 359.966,533.032 357.799,534.365 355.5,535.5C 347.222,534.53 338.889,534.197 330.5,534.5C 330.611,533.883 330.944,533.383 331.5,533C 325.922,529.078 321.255,524.911 317.5,520.5C 315.429,514.594 311.429,510.427 305.5,508C 302.032,504.74 299.032,501.074 296.5,497C 294.833,496.667 293.167,496.333 291.5,496C 292.167,495.667 292.833,495.333 293.5,495C 289.485,491.984 286.152,488.317 283.5,484C 282.5,483.667 281.5,483.333 280.5,483C 266.604,469.595 253.604,456.762 241.5,444.5C 240.063,441.959 238.897,439.292 238,436.5C 237.147,434.875 236.147,434.542 235,435.5C 233.5,433.333 231.667,431.5 229.5,430C 229.833,429.667 230.167,429.333 230.5,429C 227.833,428.333 227.833,427.667 230.5,427C 227.963,424.454 224.963,422.788 221.5,422C 217.277,418.586 213.611,414.753 210.5,410.5C 212.117,411.038 213.784,411.371 215.5,411.5C 216.872,412.512 218.205,413.512 219.5,414.5C 221.971,415.736 223.971,417.569 225.5,420C 227.818,420.342 229.985,419.842 232,418.5C 232.284,420.886 233.284,421.552 235,420.5C 235.667,423.167 236.333,423.167 237,420.5C 239.333,421.167 241.667,421.833 244,422.5C 250.753,421.686 257.586,421.186 264.5,421C 266.993,421.007 269.493,420.174 272,418.5C 272.873,418.735 273.707,419.069 274.5,419.5C 283.703,415.771 292.37,411.104 300.5,405.5C 300.771,407.312 301.438,408.978 302.5,410.5C 310.062,416.527 316.562,423.527 322,431.5C 322.893,430.289 323.726,430.289 324.5,431.5C 325.098,432.795 325.598,434.128 326,435.5C 326.333,435.167 326.667,434.833 327,434.5C 329.23,435.937 331.23,436.937 333,437.5C 334.57,436.386 335.903,435.053 337,433.5C 337.333,433.833 337.667,434.167 338,434.5C 339.009,432.975 339.509,431.308 339.5,429.5C 340.833,427.833 342.167,426.167 343.5,424.5C 344.147,423.726 344.48,422.726 344.5,421.5C 344.66,419.645 343.993,418.312 342.5,417.5C 340.167,414.5 337.5,411.833 334.5,409.5C 329.158,404.124 323.825,398.791 318.5,393.5C 318.141,391.629 317.141,390.129 315.5,389C 317.384,385.276 319.051,381.442 320.5,377.5C 323.927,371.97 326.261,365.97 327.5,359.5C 328.222,359.082 328.722,358.416 329,357.5C 329.869,351.866 330.369,346.2 330.5,340.5C 330.684,335.893 330.017,331.56 328.5,327.5C 328.583,318.588 326.249,310.588 321.5,303.5C 317.836,298.175 314.17,292.842 310.5,287.5C 309.089,285.086 307.089,283.419 304.5,282.5C 300.508,279.508 296.842,276.174 293.5,272.5C 294.882,272.598 296.382,272.598 298,272.5C 303.943,277.498 309.276,283.165 314,289.5C 315.31,287.868 315.81,286.201 315.5,284.5C 316.724,286.828 316.724,289.161 315.5,291.5C 317.333,293.05 319.499,294.05 322,294.5C 323.119,297.057 323.285,299.557 322.5,302C 324.664,302.914 326.664,304.081 328.5,305.5C 331.557,309.382 334.39,313.382 337,317.5C 337.333,317.167 337.667,316.833 338,316.5C 339.11,318.037 340.61,318.703 342.5,318.5C 342.343,319.873 342.51,321.207 343,322.5C 345.409,325.041 348.076,326.374 351,326.5C 355.092,334.422 360.925,340.422 368.5,344.5C 370.825,349.489 374.158,353.656 378.5,357C 378.167,357.333 377.833,357.667 377.5,358C 379.226,359.53 381.226,360.53 383.5,361C 388.49,366.626 393.49,372.293 398.5,378C 400.433,378.251 402.266,378.751 404,379.5C 410.31,388.044 417.144,396.21 424.5,404C 425.833,404.333 427.167,404.667 428.5,405C 429.158,406.905 430.325,408.405 432,409.5C 434.007,408.331 436.173,407.665 438.5,407.5 Z"/></g>
<g><path style="opacity:1" fill="#83a9eb" d="M 199.5,311.5 C 199.088,313.887 198.088,315.887 196.5,317.5C 196.031,314.607 197.031,312.607 199.5,311.5 Z"/></g>
<g><path style="opacity:1" fill="#7da4e9" d="M 302.5,312.5 C 303.906,312.973 304.573,313.973 304.5,315.5C 304.5,316.167 304.5,316.833 304.5,317.5C 302.744,316.448 302.077,314.781 302.5,312.5 Z"/></g>
<g><path style="opacity:1" fill="#aacaf6" d="M 242.5,316.5 C 242.5,316.833 242.5,317.167 242.5,317.5C 242.5,339.5 242.5,361.5 242.5,383.5C 246.833,383.5 251.167,383.5 255.5,383.5C 251.702,384.483 247.702,384.817 243.5,384.5C 242.168,373.52 241.501,362.187 241.5,350.5C 241.5,338.995 241.833,327.662 242.5,316.5 Z"/></g>
<g><path style="opacity:1" fill="#fcfeff" d="M 242.5,317.5 C 247.5,317.5 252.5,317.5 257.5,317.5C 257.5,339.5 257.5,361.5 257.5,383.5C 256.833,383.5 256.167,383.5 255.5,383.5C 251.167,383.5 246.833,383.5 242.5,383.5C 242.5,361.5 242.5,339.5 242.5,317.5 Z"/></g>
<g><path style="opacity:1" fill="#cbe5fd" d="M 242.5,317.5 C 242.5,317.167 242.5,316.833 242.5,316.5C 247.833,316.5 253.167,316.5 258.5,316.5C 258.5,338.833 258.5,361.167 258.5,383.5C 258.167,383.5 257.833,383.5 257.5,383.5C 257.5,361.5 257.5,339.5 257.5,317.5C 252.5,317.5 247.5,317.5 242.5,317.5 Z"/></g>
<g><path style="opacity:1" fill="#bad6f8" d="M 304.5,315.5 C 305.117,315.611 305.617,315.944 306,316.5C 306.44,318.866 306.94,321.199 307.5,323.5C 305.755,321.967 304.755,319.967 304.5,317.5C 304.5,316.833 304.5,316.167 304.5,315.5 Z"/></g>
<g><path style="opacity:1" fill="#6f9be7" d="M 195.5,319.5 C 195.098,323.912 194.265,328.246 193,332.5C 192.501,337.489 192.334,342.489 192.5,347.5C 190.554,337.865 191.554,328.532 195.5,319.5 Z"/></g>
<g><path style="opacity:1" fill="#b1cff7" d="M 173.5,321.5 C 171.938,335.559 172.272,349.559 174.5,363.5C 173.326,362.486 172.66,361.153 172.5,359.5C 171.6,353.031 170.933,346.531 170.5,340C 170.602,333.555 171.602,327.389 173.5,321.5 Z"/></g>
<g><path style="opacity:1" fill="#4783ec" d="M 177.5,307.5 C 175.627,311.941 174.293,316.608 173.5,321.5C 171.602,327.389 170.602,333.555 170.5,340C 170.933,346.531 171.6,353.031 172.5,359.5C 171.442,358.4 170.608,357.066 170,355.5C 169.586,355.957 169.086,356.291 168.5,356.5C 166.539,355.152 166.372,353.819 168,352.5C 168.186,345.586 168.686,338.753 169.5,332C 169.167,331.667 168.833,331.333 168.5,331C 170.586,325.551 172.253,319.885 173.5,314C 173.167,313.667 172.833,313.333 172.5,313C 174.3,311.188 175.967,309.355 177.5,307.5 Z"/></g>
<g><path style="opacity:1" fill="#84abeb" d="M 307.5,326.5 C 308.99,331.077 309.656,335.91 309.5,341C 309.692,345.772 309.025,350.272 307.5,354.5C 308.782,345.164 308.782,335.831 307.5,326.5 Z"/></g>
<g><path style="opacity:1" fill="#6f9be7" d="M 328.5,327.5 C 330.017,331.56 330.684,335.893 330.5,340.5C 330.369,346.2 329.869,351.866 329,357.5C 328.722,358.416 328.222,359.082 327.5,359.5C 329.58,348.884 329.914,338.218 328.5,327.5 Z"/></g>
<g><path style="opacity:1" fill="#6f9ae7" d="M 228.5,337.5 C 223.167,337.5 217.833,337.5 212.5,337.5C 212.5,346.5 212.5,355.5 212.5,364.5C 211.778,364.082 211.278,363.416 211,362.5C 210.333,354.167 210.333,345.833 211,337.5C 216.932,336.175 222.766,336.175 228.5,337.5 Z"/></g>
<g><path style="opacity:1" fill="#f9fdfe" d="M 228.5,337.5 C 228.829,351.01 228.496,364.344 227.5,377.5C 226.417,377.461 225.417,377.127 224.5,376.5C 220.381,372.476 216.381,368.476 212.5,364.5C 212.5,355.5 212.5,346.5 212.5,337.5C 217.833,337.5 223.167,337.5 228.5,337.5 Z"/></g>
<g><path style="opacity:1" fill="#98bbf0" d="M 228.5,337.5 C 229.826,351.006 229.826,364.672 228.5,378.5C 227.893,378.376 227.56,378.043 227.5,377.5C 228.496,364.344 228.829,351.01 228.5,337.5 Z"/></g>
<g><path style="opacity:1" fill="#6494e6" d="M 287.5,346.5 C 282.5,346.5 277.5,346.5 272.5,346.5C 275.563,345.799 278.73,345.132 282,344.5C 283.948,345.109 285.782,345.776 287.5,346.5 Z"/></g>
<g><path style="opacity:1" fill="#547dd4" d="M 470.5,339.5 C 471.274,342.141 471.607,344.808 471.5,347.5C 471.058,348.739 470.391,349.739 469.5,350.5C 469.461,349.417 469.127,348.417 468.5,347.5C 470.055,345.057 470.722,342.39 470.5,339.5 Z"/></g>
<g><path style="opacity:1" fill="#afcef7" d="M 272.5,346.5 C 277.5,346.5 282.5,346.5 287.5,346.5C 288.652,351.985 288.818,357.651 288,363.5C 287.617,364.056 287.117,364.389 286.5,364.5C 287.407,358.894 287.74,353.227 287.5,347.5C 282.5,347.5 277.5,347.5 272.5,347.5C 272.173,357.681 272.506,367.681 273.5,377.5C 273.44,378.043 273.107,378.376 272.5,378.5C 271.177,367.674 271.177,357.007 272.5,346.5 Z"/></g>
<g><path style="opacity:1" fill="#fafefe" d="M 286.5,364.5 C 284.774,366.228 283.441,368.228 282.5,370.5C 279.94,372.273 277.607,374.273 275.5,376.5C 274.833,376.833 274.167,377.167 273.5,377.5C 272.506,367.681 272.173,357.681 272.5,347.5C 277.5,347.5 282.5,347.5 287.5,347.5C 287.74,353.227 287.407,358.894 286.5,364.5 Z"/></g>
<g><path style="opacity:1" fill="#729de7" d="M 192.5,348.5 C 193.45,351.767 194.784,354.933 196.5,358C 196.146,359.626 196.146,361.459 196.5,363.5C 193.57,359.026 192.237,354.026 192.5,348.5 Z"/></g>
<g><path style="opacity:1" fill="#96baf0" d="M 174.5,363.5 C 176.097,365.848 177.097,368.514 177.5,371.5C 175.603,369.302 174.603,366.636 174.5,363.5 Z"/></g>
<g><path style="opacity:1" fill="#78a1e8" d="M 282.5,370.5 C 281.221,373.652 278.888,375.652 275.5,376.5C 277.607,374.273 279.94,372.273 282.5,370.5 Z"/></g>
<g><path style="opacity:1" fill="#6493e4" d="M 255.5,383.5 C 256.167,383.5 256.833,383.5 257.5,383.5C 257.833,383.5 258.167,383.5 258.5,383.5C 258.389,384.117 258.056,384.617 257.5,385C 252.648,385.815 247.981,385.648 243.5,384.5C 247.702,384.817 251.702,384.483 255.5,383.5 Z"/></g>
<g><path style="opacity:1" fill="#6892df" d="M 320.5,377.5 C 319.051,381.442 317.384,385.276 315.5,389C 317.141,390.129 318.141,391.629 318.5,393.5C 316.521,392.188 314.855,390.521 313.5,388.5C 315.662,384.599 317.995,380.933 320.5,377.5 Z"/></g>
<g><path style="opacity:0.987" fill="#757676" d="M 804.5,387.5 C 833.336,387.854 851.503,401.854 859,429.5C 861.93,448.635 856.763,465.135 843.5,479C 845.625,482.082 847.625,485.249 849.5,488.5C 848.469,489.7 847.635,491.034 847,492.5C 846.667,492.167 846.333,491.833 846,491.5C 843.656,493.181 841.323,494.848 839,496.5C 836.728,494.788 834.561,492.954 832.5,491C 833.369,489.535 832.869,488.369 831,487.5C 798.47,498.717 774.804,489.05 760,458.5C 751.932,427.48 761.765,404.98 789.5,391C 794.545,389.425 799.545,388.259 804.5,387.5 Z M 800.5,402.5 C 827.426,401.447 842.092,414.114 844.5,440.5C 844.557,449.833 841.557,457.999 835.5,465C 834.668,465.688 834.002,465.521 833.5,464.5C 830.5,459.35 827,454.684 823,450.5C 818.933,452.45 815.1,454.783 811.5,457.5C 815.416,462.996 819.082,468.663 822.5,474.5C 796.95,482.12 780.45,473.12 773,447.5C 771.219,433.512 775.052,421.346 784.5,411C 790.013,407.623 795.346,404.79 800.5,402.5 Z"/></g>
<g><path style="opacity:1" fill="#709ae6" d="M 184.5,385.5 C 186.9,387.296 188.567,389.63 189.5,392.5C 187.1,390.704 185.433,388.37 184.5,385.5 Z"/></g>
<g><path style="opacity:0.989" fill="#757576" d="M 631.5,388.5 C 641.539,388.709 645.373,393.709 643,403.5C 638.723,410.814 633.223,411.981 626.5,407C 625.526,404.713 624.193,402.713 622.5,401C 623.714,398.649 624.548,396.149 625,393.5C 626.965,391.45 629.132,389.783 631.5,388.5 Z"/></g>
<g><path style="opacity:0.027" fill="#666e7b" d="M 447.5,391.5 C 448.833,392.167 448.833,392.167 447.5,391.5 Z"/></g>
<g><path style="opacity:0.992" fill="#757676" d="M 547.5,389.5 C 562.217,389.087 576.884,389.587 591.5,391C 610.927,398.612 616.76,412.112 609,431.5C 606.624,434.045 604.124,436.378 601.5,438.5C 614.315,446.02 618.481,457.02 614,471.5C 610.5,479 605,484.5 597.5,488C 591.637,489.226 585.803,490.393 580,491.5C 571,490.167 562,490.167 553,491.5C 551,490.833 549,490.167 547,489.5C 546.174,456.095 546.341,422.762 547.5,389.5 Z M 562.5,404.5 C 571.582,404.086 580.582,404.586 589.5,406C 597.624,410.707 599.457,417.207 595,425.5C 593.127,427.709 590.96,429.542 588.5,431C 579.5,431.667 570.5,431.667 561.5,431C 562.484,422.251 562.817,413.418 562.5,404.5 Z M 561.5,446.5 C 571.053,445.099 580.719,445.266 590.5,447C 595.593,449.091 598.926,452.758 600.5,458C 599.167,460 599.167,462 600.5,464C 599.126,466.583 597.626,469.083 596,471.5C 594.2,473.317 592.034,474.484 589.5,475C 580.167,475.667 570.833,475.667 561.5,475C 562.828,465.402 562.828,455.902 561.5,446.5 Z"/></g>
<g><path style="opacity:1" fill="#80a7ea" d="M 229.5,395.5 C 232.152,395.41 234.485,396.076 236.5,397.5C 233.848,397.59 231.515,396.924 229.5,395.5 Z"/></g>
<g><path style="opacity:1" fill="#7ba3e9" d="M 236.5,397.5 C 244.486,398.099 252.486,398.432 260.5,398.5C 257.351,399.165 254.018,399.498 250.5,399.5C 245.563,399.7 240.896,399.033 236.5,397.5 Z"/></g>
<g><path style="opacity:1" fill="#6692e2" d="M 199.5,401.5 C 204.566,405.361 209.899,408.694 215.5,411.5C 213.784,411.371 212.117,411.038 210.5,410.5C 205.636,408.719 201.969,405.719 199.5,401.5 Z"/></g>
<g><path style="opacity:1" fill="#abcaf4" d="M 334.5,409.5 C 337.5,411.833 340.167,414.5 342.5,417.5C 338.833,415.833 336.167,413.167 334.5,409.5 Z"/></g>
<g><path style="opacity:1" fill="#4f7fd6" d="M 300.5,405.5 C 292.37,411.104 283.703,415.771 274.5,419.5C 273.707,419.069 272.873,418.735 272,418.5C 269.493,420.174 266.993,421.007 264.5,421C 257.586,421.186 250.753,421.686 244,422.5C 241.667,421.833 239.333,421.167 237,420.5C 236.333,423.167 235.667,423.167 235,420.5C 233.284,421.552 232.284,420.886 232,418.5C 229.985,419.842 227.818,420.342 225.5,420C 223.971,417.569 221.971,415.736 219.5,414.5C 247.841,424.289 274.174,420.622 298.5,403.5C 299.522,403.855 300.189,404.522 300.5,405.5 Z"/></g>
<g><path style="opacity:1" fill="#bbd8f9" d="M 342.5,417.5 C 343.993,418.312 344.66,419.645 344.5,421.5C 344.48,422.726 344.147,423.726 343.5,424.5C 343.552,422.097 343.219,419.764 342.5,417.5 Z"/></g>
<g><path style="opacity:0.99" fill="#757676" d="M 674.5,419.5 C 680.509,419.334 686.509,419.501 692.5,420C 696.869,421.267 700.703,423.433 704,426.5C 704.5,426 705,425.5 705.5,425C 704.167,423.667 704.167,422.333 705.5,421C 710.419,420.198 715.252,420.365 720,421.5C 720.942,446.869 720.609,472.202 719,497.5C 711.558,515.911 697.891,523.911 678,521.5C 669.225,519.112 661.892,514.445 656,507.5C 654.864,504.904 654.031,502.237 653.5,499.5C 658.098,497.796 662.764,496.629 667.5,496C 677.568,510.889 689.068,512.055 702,499.5C 702.644,496.391 703.811,493.557 705.5,491C 704.697,489.011 704.197,486.845 704,484.5C 686.37,496.472 670.703,494.472 657,478.5C 648.336,463.555 648.336,448.222 657,432.5C 661.652,426.317 667.485,421.984 674.5,419.5 Z M 682.5,432.5 C 692.279,431.583 699.113,435.583 703,444.5C 705.306,451.084 705.639,457.417 704,463.5C 699.586,475.79 691.086,480.29 678.5,477C 666.917,470.008 663.084,459.841 667,446.5C 669.877,439.114 675.044,434.448 682.5,432.5 Z"/></g>
<g><path style="opacity:0.989" fill="#757676" d="M 964.5,419.5 C 986.306,415.964 1000.14,424.631 1006,445.5C 1006.83,449.871 1006.66,454.205 1005.5,458.5C 988.679,458.535 971.679,458.535 954.5,458.5C 958.089,476.536 968.422,482.036 985.5,475C 988.406,472.265 991.072,469.432 993.5,466.5C 997.162,467.997 1000.83,469.497 1004.5,471C 1005.02,471.561 1005.36,472.228 1005.5,473C 1001.19,482.642 993.854,488.642 983.5,491C 956.595,495.136 941.595,483.303 938.5,455.5C 939.179,437.519 947.846,425.519 964.5,419.5 Z M 969.5,432.5 C 979.835,431.335 986.835,435.335 990.5,444.5C 978.848,445.666 967.181,445.833 955.5,445C 957.543,441.747 959.71,438.58 962,435.5C 962.333,435.833 962.667,436.167 963,436.5C 964.748,434.372 966.915,433.039 969.5,432.5 Z"/></g>
<g><path style="opacity:0.978" fill="#757576" d="M 1042.5,419.5 C 1047.56,419.219 1052.56,419.552 1057.5,420.5C 1058.31,424.966 1057.64,429.299 1055.5,433.5C 1044.65,431.758 1036.65,435.591 1031.5,445C 1030.69,459.801 1030.19,474.635 1030,489.5C 1025.33,490.833 1020.67,490.833 1016,489.5C 1015.5,466.502 1015.33,443.502 1015.5,420.5C 1020.18,420.334 1024.85,420.501 1029.5,421C 1030.26,423.069 1030.76,425.236 1031,427.5C 1034.46,424.194 1038.29,421.527 1042.5,419.5 Z"/></g>
<g><path style="opacity:0.984" fill="#757676" d="M 869.5,420.5 C 874.43,420.197 879.263,420.531 884,421.5C 884.333,437.167 884.667,452.833 885,468.5C 887.289,474.992 891.955,478.325 899,478.5C 906.276,477.886 911.276,474.219 914,467.5C 915.437,451.891 915.937,436.224 915.5,420.5C 920.762,420.195 925.928,420.529 931,421.5C 931.667,444.167 931.667,466.833 931,489.5C 926.252,490.635 921.419,490.802 916.5,490C 916.645,488.084 916.145,486.251 915,484.5C 909.404,489.81 902.737,492.144 895,491.5C 881.488,491.988 873.154,485.655 870,472.5C 869.5,455.17 869.333,437.837 869.5,420.5 Z"/></g>
<g><path style="opacity:0.987" fill="#757576" d="M 1059.5,420.5 C 1064.83,420.5 1070.17,420.5 1075.5,420.5C 1081.16,435.963 1087.33,451.297 1094,466.5C 1100.15,451.53 1106.32,436.53 1112.5,421.5C 1117.79,420.505 1123.13,420.172 1128.5,420.5C 1122.92,434.072 1117.42,447.738 1112,461.5C 1103.01,481.132 1094.01,500.799 1085,520.5C 1081.37,520.517 1077.53,520.35 1073.5,520C 1072.48,519.481 1071.82,518.647 1071.5,517.5C 1076.62,506.302 1081.29,495.302 1085.5,484.5C 1082.05,473.038 1077.05,461.871 1070.5,451C 1070.83,450.667 1071.17,450.333 1071.5,450C 1068.79,444.09 1065.96,438.257 1063,432.5C 1061.12,428.693 1059.95,424.693 1059.5,420.5 Z"/></g>
<g><path style="opacity:1" fill="#487ad5" d="M 300.5,405.5 C 310.298,414.798 319.965,424.298 329.5,434C 331.167,434.667 332.833,434.667 334.5,434C 336.037,432.293 337.704,430.793 339.5,429.5C 339.509,431.308 339.009,432.975 338,434.5C 337.667,434.167 337.333,433.833 337,433.5C 335.903,435.053 334.57,436.386 333,437.5C 331.23,436.937 329.23,435.937 327,434.5C 326.667,434.833 326.333,435.167 326,435.5C 325.598,434.128 325.098,432.795 324.5,431.5C 323.726,430.289 322.893,430.289 322,431.5C 316.562,423.527 310.062,416.527 302.5,410.5C 301.438,408.978 300.771,407.312 300.5,405.5 Z"/></g>
<g><path style="opacity:0.075" fill="#686c74" d="M 627.5,489.5 C 626.81,484.767 626.144,479.934 625.5,475C 626.464,457.753 626.797,439.586 626.5,420.5C 631.5,420.5 636.5,420.5 641.5,420.5C 641.5,443.833 641.5,467.167 641.5,490.5C 636.637,490.819 631.97,490.486 627.5,489.5 Z"/></g>
<g><path style="opacity:0.972" fill="#777777" d="M 627.5,489.5 C 627.5,466.833 627.5,444.167 627.5,421.5C 631.833,421.5 636.167,421.5 640.5,421.5C 640.5,444.167 640.5,466.833 640.5,489.5C 636.167,489.5 631.833,489.5 627.5,489.5 Z"/></g>
<g><path style="opacity:0.075" fill="#6c6f75" d="M 407.5,461.5 C 407.167,462.5 406.5,463.167 405.5,463.5C 405.5,462.167 406.167,461.5 407.5,461.5 Z"/></g>
<g><path style="opacity:0.027" fill="#676d78" d="M 129.5,515.5 C 130.906,515.973 131.573,516.973 131.5,518.5C 130.094,518.027 129.427,517.027 129.5,515.5 Z"/></g>
<g><path style="opacity:0.027" fill="#6a6f7c" d="M 136.5,525.5 C 137.5,525.833 138.167,526.5 138.5,527.5C 137.167,527.5 136.5,526.833 136.5,525.5 Z"/></g>
<g><path style="opacity:0.027" fill="#666e7b" d="M 141.5,530.5 C 140.833,531.167 140.833,531.167 141.5,530.5 Z"/></g>
</svg>
