<?xml version="1.0" encoding="UTF-8"?>
<!DOCTYPE svg PUBLIC "-//W3C//DTD SVG 1.1//EN" "http://www.w3.org/Graphics/SVG/1.1/DTD/svg11.dtd">
<svg xmlns="http://www.w3.org/2000/svg" version="1.1" width="800px" height="450px" style="shape-rendering:geometricPrecision; text-rendering:geometricPrecision; image-rendering:optimizeQuality; fill-rule:evenodd; clip-rule:evenodd" xmlns:xlink="http://www.w3.org/1999/xlink">
<g><path style="opacity:0.943" fill="#e1a610" d="M 768.5,108.5 C 763.785,108.899 759.785,110.733 756.5,114C 754.122,114.511 751.788,115.178 749.5,116C 732.718,123.952 716.052,132.119 699.5,140.5C 692.79,142.418 686.124,143.085 679.5,142.5C 679.5,144.833 679.5,147.167 679.5,149.5C 678.495,147.296 678.162,144.296 678.5,140.5C 677.5,140.5 676.5,140.5 675.5,140.5C 675.5,122.5 675.5,104.5 675.5,86.5C 706.5,86.5 737.5,86.5 768.5,86.5C 768.5,93.8333 768.5,101.167 768.5,108.5 Z"/></g>
<g><path style="opacity:1" fill="#dd9f0f" d="M 768.5,108.5 C 768.5,121.833 768.5,135.167 768.5,148.5C 753.102,154.779 737.935,161.779 723,169.5C 722.398,165.117 721.565,160.784 720.5,156.5C 719.707,156.931 718.873,157.265 718,157.5C 710.945,155.429 704.278,152.762 698,149.5C 691.834,150.814 685.667,150.814 679.5,149.5C 679.5,147.167 679.5,144.833 679.5,142.5C 686.124,143.085 692.79,142.418 699.5,140.5C 716.052,132.119 732.718,123.952 749.5,116C 751.788,115.178 754.122,114.511 756.5,114C 759.785,110.733 763.785,108.899 768.5,108.5 Z"/></g>
<g><path style="opacity:0.021" fill="#020100" d="M 675.5,149.5 C 675.5,150.833 675.5,152.167 675.5,153.5C 674.833,153.5 674.5,153.833 674.5,154.5C 661.833,154.5 649.167,154.5 636.5,154.5C 635.833,153.167 635.167,153.167 634.5,154.5C 633.5,154.5 632.5,154.5 631.5,154.5C 627.833,153.167 624.167,153.167 620.5,154.5C 620.5,155.167 620.5,155.833 620.5,156.5C 620.167,156.5 619.833,156.5 619.5,156.5C 618.624,156.369 617.957,156.702 617.5,157.5C 618.124,162.965 618.79,168.298 619.5,173.5C 619.5,189.5 619.5,205.5 619.5,221.5C 618.833,221.5 618.5,221.833 618.5,222.5C 616.833,222.5 615.167,222.5 613.5,222.5C 612.791,221.596 611.791,221.263 610.5,221.5C 610.625,195.769 610.625,170.103 610.5,144.5C 631.735,142.17 653.068,141.17 674.5,141.5C 674.194,144.385 674.527,147.052 675.5,149.5 Z"/></g>
<g><path style="opacity:1" fill="#d89910" d="M 675.5,140.5 C 676.5,140.5 677.5,140.5 678.5,140.5C 678.162,144.296 678.495,147.296 679.5,149.5C 685.667,150.814 691.834,150.814 698,149.5C 704.278,152.762 710.945,155.429 718,157.5C 718.873,157.265 719.707,156.931 720.5,156.5C 721.565,160.784 722.398,165.117 723,169.5C 737.935,161.779 753.102,154.779 768.5,148.5C 768.5,163.833 768.5,179.167 768.5,194.5C 753.041,200.732 738.041,207.732 723.5,215.5C 722.627,202.503 721.793,189.503 721,176.5C 719.15,171.954 717.483,167.287 716,162.5C 715.817,165.365 715.317,168.031 714.5,170.5C 714.167,170.5 713.833,170.5 713.5,170.5C 713.785,168.712 713.452,167.045 712.5,165.5C 711.5,231.163 711.167,296.83 711.5,362.5C 711.167,362.5 710.833,362.5 710.5,362.5C 710.5,342.167 710.5,321.833 710.5,301.5C 710.5,285.5 710.5,269.5 710.5,253.5C 710.5,238.5 710.5,223.5 710.5,208.5C 710.5,194.5 710.5,180.5 710.5,166.5C 710.229,161.39 707.562,158.223 702.5,157C 693.84,156.5 685.173,156.334 676.5,156.5C 676.672,155.508 676.338,154.842 675.5,154.5C 675.5,154.167 675.5,153.833 675.5,153.5C 675.5,152.167 675.5,150.833 675.5,149.5C 675.5,146.5 675.5,143.5 675.5,140.5 Z"/></g>
<g><path style="opacity:0.314" fill="#7b6b27" d="M 620.5,154.5 C 624.167,154.5 627.833,154.5 631.5,154.5C 632.5,154.5 633.5,154.5 634.5,154.5C 635.167,154.5 635.833,154.5 636.5,154.5C 649.167,154.5 661.833,154.5 674.5,154.5C 674.833,154.5 675.167,154.5 675.5,154.5C 676.338,154.842 676.672,155.508 676.5,156.5C 657.833,156.5 639.167,156.5 620.5,156.5C 620.5,155.833 620.5,155.167 620.5,154.5 Z"/></g>
<g><path style="opacity:1" fill="#f3d147" d="M 620.5,156.5 C 639.167,156.5 657.833,156.5 676.5,156.5C 685.173,156.334 693.84,156.5 702.5,157C 707.562,158.223 710.229,161.39 710.5,166.5C 709.691,168.292 709.191,170.292 709,172.5C 708.911,168.972 708.244,165.638 707,162.5C 678.505,176.484 650.339,191.151 622.5,206.5C 621.83,208.291 621.163,209.958 620.5,211.5C 620.5,193.167 620.5,174.833 620.5,156.5 Z"/></g>
<g><path style="opacity:0.297" fill="#53481d" d="M 619.5,156.5 C 619.833,156.5 620.167,156.5 620.5,156.5C 620.5,174.833 620.5,193.167 620.5,211.5C 620.5,215.833 620.5,220.167 620.5,224.5C 617.302,225.036 614.635,224.369 612.5,222.5C 612.833,222.5 613.167,222.5 613.5,222.5C 615.167,222.5 616.833,222.5 618.5,222.5C 619.167,222.5 619.5,222.167 619.5,221.5C 619.5,205.5 619.5,189.5 619.5,173.5C 619.5,167.833 619.5,162.167 619.5,156.5 Z"/></g>
<g><path style="opacity:1" fill="#f1ca3d" d="M 710.5,166.5 C 710.5,180.5 710.5,194.5 710.5,208.5C 709.883,208.611 709.383,208.944 709,209.5C 708.781,208.062 708.281,206.729 707.5,205.5C 700.251,209.208 693.085,213.208 686,217.5C 676.002,222.164 666.002,226.831 656,231.5C 655.581,230.328 654.915,229.328 654,228.5C 653.601,228.728 653.435,229.062 653.5,229.5C 653.167,229.5 652.833,229.5 652.5,229.5C 651.106,227.292 649.106,225.792 646.5,225C 637.84,224.5 629.173,224.334 620.5,224.5C 620.5,220.167 620.5,215.833 620.5,211.5C 621.163,209.958 621.83,208.291 622.5,206.5C 650.339,191.151 678.505,176.484 707,162.5C 708.244,165.638 708.911,168.972 709,172.5C 709.191,170.292 709.691,168.292 710.5,166.5 Z"/></g>
<g><path style="opacity:0.89" fill="#feb902" d="M 27.5,188.5 C 41.8372,188.333 56.1705,188.5 70.5,189C 86.9732,194.18 93.4732,205.347 90,222.5C 88.0608,225.947 85.8942,229.281 83.5,232.5C 72.7941,238.97 61.1274,241.303 48.5,239.5C 48.5,247.833 48.5,256.167 48.5,264.5C 41.5,264.5 34.5,264.5 27.5,264.5C 27.5,239.167 27.5,213.833 27.5,188.5 Z M 47.5,207.5 C 54.119,206.05 60.7856,206.383 67.5,208.5C 69.7206,211.943 70.0539,215.61 68.5,219.5C 66.7801,220.934 64.7801,221.767 62.5,222C 57.5,222.667 52.5,222.667 47.5,222C 48.8236,217.067 48.8236,212.234 47.5,207.5 Z"/></g>
<g><path style="opacity:0.883" fill="#feb902" d="M 392.5,188.5 C 407.837,188.333 423.17,188.5 438.5,189C 454.379,193.59 459.546,203.757 454,219.5C 451.401,222.545 448.234,224.712 444.5,226C 453.287,228.504 457.953,234.337 458.5,243.5C 458.288,253.21 453.622,259.71 444.5,263C 427.223,264.444 409.889,264.944 392.5,264.5C 392.5,239.167 392.5,213.833 392.5,188.5 Z M 412.5,205.5 C 418.509,205.334 424.509,205.501 430.5,206C 434.497,208.048 435.497,211.215 433.5,215.5C 432.5,216.167 431.5,216.833 430.5,217.5C 424.537,218.496 418.537,218.829 412.5,218.5C 412.5,214.167 412.5,209.833 412.5,205.5 Z M 412.5,234.5 C 419.906,234.152 427.239,234.652 434.5,236C 437.484,240.71 436.817,244.71 432.5,248C 425.842,248.5 419.175,248.666 412.5,248.5C 412.5,243.833 412.5,239.167 412.5,234.5 Z"/></g>
<g><path style="opacity:0.884" fill="#feb902" d="M 465.5,188.5 C 472.5,188.5 479.5,188.5 486.5,188.5C 486.5,213.833 486.5,239.167 486.5,264.5C 479.5,264.5 472.5,264.5 465.5,264.5C 465.5,239.167 465.5,213.833 465.5,188.5 Z"/></g>
<g><path style="opacity:1" fill="#d4920e" d="M 768.5,194.5 C 768.5,207.5 768.5,220.5 768.5,233.5C 753.083,240.094 737.75,247.094 722.5,254.5C 722.266,238.728 720.932,223.061 718.5,207.5C 718.709,206.006 719.376,204.839 720.5,204C 718.877,200.951 717.377,197.784 716,194.5C 715.667,196.167 715.333,197.833 715,199.5C 714.5,189.839 714.334,180.172 714.5,170.5C 715.317,168.031 715.817,165.365 716,162.5C 717.483,167.287 719.15,171.954 721,176.5C 721.793,189.503 722.627,202.503 723.5,215.5C 738.041,207.732 753.041,200.732 768.5,194.5 Z"/></g>
<g><path style="opacity:0.877" fill="#feb902" d="M 113.5,205.5 C 121.668,204.95 129.668,205.783 137.5,208C 151.836,217.818 156.336,231.318 151,248.5C 148.994,252.513 146.494,256.18 143.5,259.5C 124.881,270.974 108.547,268.474 94.5,252C 91.3061,243.045 90.8061,233.545 93,223.5C 96.9782,214.713 103.811,208.713 113.5,205.5 Z M 117.5,221.5 C 123.741,219.988 128.241,221.988 131,227.5C 131.87,233.917 131.536,240.251 130,246.5C 126.319,249.36 122.152,250.193 117.5,249C 115.667,248.5 114.5,247.333 114,245.5C 111.788,238.044 112.122,230.711 115,223.5C 115.995,222.934 116.828,222.267 117.5,221.5 Z"/></g>
<g><path style="opacity:0.857" fill="#feb902" d="M 273.5,205.5 C 300.921,202.921 313.254,215.254 310.5,242.5C 297.829,242.333 285.162,242.5 272.5,243C 273.893,244.171 274.727,245.671 275,247.5C 279.304,249.414 283.804,249.914 288.5,249C 290.658,247.543 292.491,245.71 294,243.5C 299.404,245.858 304.904,248.025 310.5,250C 307.253,258.156 301.253,263.323 292.5,265.5C 286.528,266.664 280.528,266.83 274.5,266C 270.117,264.201 265.783,262.201 261.5,260C 247.888,243.189 248.222,226.689 262.5,210.5C 266.175,208.619 269.841,206.952 273.5,205.5 Z M 277.5,221.5 C 281.308,221.163 284.974,221.663 288.5,223C 289.669,225.007 290.335,227.173 290.5,229.5C 284.463,229.829 278.463,229.496 272.5,228.5C 274.351,226.219 276.018,223.885 277.5,221.5 Z"/></g>
<g><path style="opacity:0.858" fill="#feb902" d="M 347.5,205.5 C 351.571,205.234 355.571,205.567 359.5,206.5C 359.833,207.167 360.167,207.833 360.5,208.5C 359.958,214.262 358.958,219.929 357.5,225.5C 350.854,221.024 345.021,222.024 340,228.5C 338.609,240.447 338.109,252.447 338.5,264.5C 331.5,264.5 324.5,264.5 317.5,264.5C 317.5,245.167 317.5,225.833 317.5,206.5C 323.842,206.334 330.175,206.5 336.5,207C 337.264,209.069 337.764,211.236 338,213.5C 340.325,209.765 343.491,207.099 347.5,205.5 Z"/></g>
<g><path style="opacity:0.874" fill="#feb902" d="M 152.5,206.5 C 159.532,206.17 166.532,206.503 173.5,207.5C 177.148,219.898 179.982,232.565 182,245.5C 185.395,233.142 188.895,220.476 192.5,207.5C 199.468,206.503 206.468,206.17 213.5,206.5C 215.253,219.103 218.087,231.436 222,243.5C 226.16,231.541 228.994,219.207 230.5,206.5C 238.167,206.5 245.833,206.5 253.5,206.5C 247.033,225.572 241.366,244.905 236.5,264.5C 227.833,264.5 219.167,264.5 210.5,264.5C 208.864,253.476 206.031,242.809 202,232.5C 199.736,243.016 196.903,253.35 193.5,263.5C 185.193,264.498 176.86,264.831 168.5,264.5C 163.402,247.2 158.235,229.867 153,212.5C 152.505,210.527 152.338,208.527 152.5,206.5 Z"/></g>
<g><path style="opacity:1" fill="#c7880d" d="M 713.5,170.5 C 713.833,170.5 714.167,170.5 714.5,170.5C 714.334,180.172 714.5,189.839 715,199.5C 715.333,197.833 715.667,196.167 716,194.5C 717.377,197.784 718.877,200.951 720.5,204C 719.376,204.839 718.709,206.006 718.5,207.5C 720.932,223.061 722.266,238.728 722.5,254.5C 722.5,267.5 722.5,280.5 722.5,293.5C 722.5,299.833 722.5,306.167 722.5,312.5C 721.51,306.69 721.177,300.69 721.5,294.5C 720.5,294.5 719.5,294.5 718.5,294.5C 717.669,284.176 716.836,273.843 716,263.5C 715.667,270.5 715.333,277.5 715,284.5C 714.832,262.663 714.332,240.996 713.5,219.5C 713.5,203.167 713.5,186.833 713.5,170.5 Z"/></g>
<g><path style="opacity:0.971" fill="#f8e280" d="M 612.5,222.5 C 614.635,224.369 617.302,225.036 620.5,224.5C 629.173,224.334 637.84,224.5 646.5,225C 649.106,225.792 651.106,227.292 652.5,229.5C 652.649,230.552 652.483,231.552 652,232.5C 651.167,230.333 649.667,228.833 647.5,228C 643.459,227.173 639.459,227.34 635.5,228.5C 611.384,238.876 587.051,248.876 562.5,258.5C 562.5,246.5 562.5,234.5 562.5,222.5C 579.167,222.5 595.833,222.5 612.5,222.5 Z"/></g>
<g><path style="opacity:0.988" fill="#f7e179" d="M 652.5,229.5 C 652.833,229.5 653.167,229.5 653.5,229.5C 653.5,230.167 653.5,230.833 653.5,231.5C 653.5,236.5 653.5,241.5 653.5,246.5C 652.527,244.052 652.194,241.385 652.5,238.5C 650.213,238.724 648.047,239.391 646,240.5C 642.244,242.895 638.577,244.562 635,245.5C 634.667,246.167 634.333,246.833 634,247.5C 630.079,246.207 627.246,247.541 625.5,251.5C 622.748,250.787 620.082,251.287 617.5,253C 618.696,253.654 618.696,254.154 617.5,254.5C 615.844,252.978 614.677,253.311 614,255.5C 613.439,254.978 612.772,254.645 612,254.5C 609.435,255.728 607.269,257.394 605.5,259.5C 602.998,258.809 600.498,259.142 598,260.5C 593.566,263.489 588.733,265.655 583.5,267C 584.696,267.654 584.696,268.154 583.5,268.5C 582.833,268.167 582.167,267.833 581.5,267.5C 577.679,270.39 573.346,272.223 568.5,273C 567.965,275.109 566.965,275.609 565.5,274.5C 564.735,275.612 563.735,276.279 562.5,276.5C 562.5,270.5 562.5,264.5 562.5,258.5C 587.051,248.876 611.384,238.876 635.5,228.5C 639.459,227.34 643.459,227.173 647.5,228C 649.667,228.833 651.167,230.333 652,232.5C 652.483,231.552 652.649,230.552 652.5,229.5 Z"/></g>
<g><path style="opacity:1" fill="#d18c0e" d="M 768.5,233.5 C 768.5,246.5 768.5,259.5 768.5,272.5C 753.466,279.793 738.133,286.793 722.5,293.5C 722.5,280.5 722.5,267.5 722.5,254.5C 737.75,247.094 753.083,240.094 768.5,233.5 Z"/></g>
<g><path style="opacity:1" fill="#eec130" d="M 710.5,208.5 C 710.5,223.5 710.5,238.5 710.5,253.5C 709.732,254.263 709.232,255.263 709,256.5C 708.751,255.376 708.251,254.376 707.5,253.5C 705.359,254.808 703.359,256.308 701.5,258C 697.575,258.629 694.241,260.296 691.5,263C 680.266,268.784 668.933,274.284 657.5,279.5C 656.955,276.187 656.455,272.854 656,269.5C 655.5,285.83 655.333,302.163 655.5,318.5C 655.815,322.371 655.482,326.038 654.5,329.5C 654.5,314.167 654.5,298.833 654.5,283.5C 654.83,265.992 654.497,248.659 653.5,231.5C 653.5,230.833 653.5,230.167 653.5,229.5C 653.435,229.062 653.601,228.728 654,228.5C 654.915,229.328 655.581,230.328 656,231.5C 666.002,226.831 676.002,222.164 686,217.5C 693.085,213.208 700.251,209.208 707.5,205.5C 708.281,206.729 708.781,208.062 709,209.5C 709.383,208.944 709.883,208.611 710.5,208.5 Z"/></g>
<g><path style="opacity:0.989" fill="#f7de6f" d="M 653.5,246.5 C 653.667,257.505 653.5,268.505 653,279.5C 652.818,276.774 652.318,274.107 651.5,271.5C 621.886,283.734 592.219,296.067 562.5,308.5C 562.5,297.833 562.5,287.167 562.5,276.5C 563.735,276.279 564.735,275.612 565.5,274.5C 566.965,275.609 567.965,275.109 568.5,273C 573.346,272.223 577.679,270.39 581.5,267.5C 582.167,267.833 582.833,268.167 583.5,268.5C 584.696,268.154 584.696,267.654 583.5,267C 588.733,265.655 593.566,263.489 598,260.5C 600.498,259.142 602.998,258.809 605.5,259.5C 607.269,257.394 609.435,255.728 612,254.5C 612.772,254.645 613.439,254.978 614,255.5C 614.677,253.311 615.844,252.978 617.5,254.5C 618.696,254.154 618.696,253.654 617.5,253C 620.082,251.287 622.748,250.787 625.5,251.5C 627.246,247.541 630.079,246.207 634,247.5C 634.333,246.833 634.667,246.167 635,245.5C 638.577,244.562 642.244,242.895 646,240.5C 648.047,239.391 650.213,238.724 652.5,238.5C 652.194,241.385 652.527,244.052 653.5,246.5 Z"/></g>
<g><path style="opacity:1" fill="#9b690b" d="M 713.5,170.5 C 713.5,186.833 713.5,203.167 713.5,219.5C 713.5,267.167 713.5,314.833 713.5,362.5C 712.833,362.5 712.167,362.5 711.5,362.5C 711.167,296.83 711.5,231.163 712.5,165.5C 713.452,167.045 713.785,168.712 713.5,170.5 Z"/></g>
<g><path style="opacity:0.989" fill="#f6dc67" d="M 653.5,231.5 C 654.497,248.659 654.83,265.992 654.5,283.5C 653.512,288.64 653.179,293.974 653.5,299.5C 652.681,296.695 652.181,293.695 652,290.5C 632.893,299.475 613.393,307.642 593.5,315C 592.91,316.299 591.91,317.132 590.5,317.5C 583.942,318.951 577.942,321.451 572.5,325C 569.176,325.943 565.843,326.776 562.5,327.5C 562.5,321.167 562.5,314.833 562.5,308.5C 592.219,296.067 621.886,283.734 651.5,271.5C 652.318,274.107 652.818,276.774 653,279.5C 653.5,268.505 653.667,257.505 653.5,246.5C 653.5,241.5 653.5,236.5 653.5,231.5 Z"/></g>
<g><path style="opacity:1" fill="#ebba24" d="M 710.5,253.5 C 710.5,269.5 710.5,285.5 710.5,301.5C 706.994,299.199 703.994,300.032 701.5,304C 698.405,304.714 695.405,305.714 692.5,307C 681.154,313.864 669.487,320.031 657.5,325.5C 657.279,322.933 656.612,320.599 655.5,318.5C 655.333,302.163 655.5,285.83 656,269.5C 656.455,272.854 656.955,276.187 657.5,279.5C 668.933,274.284 680.266,268.784 691.5,263C 694.241,260.296 697.575,258.629 701.5,258C 703.359,256.308 705.359,254.808 707.5,253.5C 708.251,254.376 708.751,255.376 709,256.5C 709.232,255.263 709.732,254.263 710.5,253.5 Z"/></g>
<g><path style="opacity:1" fill="#cd860e" d="M 768.5,272.5 C 768.5,285.833 768.5,299.167 768.5,312.5C 764.628,313.283 761.295,314.949 758.5,317.5C 746.86,322.828 735.193,328.161 723.5,333.5C 722.503,326.532 722.17,319.532 722.5,312.5C 722.5,306.167 722.5,299.833 722.5,293.5C 738.133,286.793 753.466,279.793 768.5,272.5 Z"/></g>
<g><path style="opacity:0.983" fill="#f6d95c" d="M 653.5,299.5 C 653.667,310.505 653.5,321.505 653,332.5C 652.667,329.833 652.333,327.167 652,324.5C 624.212,336.049 596.045,347.715 567.5,359.5C 567.5,360.5 567.5,361.5 567.5,362.5C 565.833,362.5 564.167,362.5 562.5,362.5C 562.5,350.833 562.5,339.167 562.5,327.5C 565.843,326.776 569.176,325.943 572.5,325C 577.942,321.451 583.942,318.951 590.5,317.5C 591.91,317.132 592.91,316.299 593.5,315C 613.393,307.642 632.893,299.475 652,290.5C 652.181,293.695 652.681,296.695 653.5,299.5 Z"/></g>
<g><path style="opacity:0.952" fill="#c77f0d" d="M 713.5,219.5 C 714.332,240.996 714.832,262.663 715,284.5C 715.333,277.5 715.667,270.5 716,263.5C 716.836,273.843 717.669,284.176 718.5,294.5C 719.5,294.5 720.5,294.5 721.5,294.5C 721.177,300.69 721.51,306.69 722.5,312.5C 722.17,319.532 722.503,326.532 723.5,333.5C 735.193,328.161 746.86,322.828 758.5,317.5C 761.295,314.949 764.628,313.283 768.5,312.5C 768.5,329.167 768.5,345.833 768.5,362.5C 750.167,362.5 731.833,362.5 713.5,362.5C 713.5,314.833 713.5,267.167 713.5,219.5 Z"/></g>
<g><path style="opacity:0.937" fill="#f5d753" d="M 654.5,283.5 C 654.5,298.833 654.5,314.167 654.5,329.5C 654.5,340.5 654.5,351.5 654.5,362.5C 625.5,362.5 596.5,362.5 567.5,362.5C 567.5,361.5 567.5,360.5 567.5,359.5C 596.045,347.715 624.212,336.049 652,324.5C 652.333,327.167 652.667,329.833 653,332.5C 653.5,321.505 653.667,310.505 653.5,299.5C 653.179,293.974 653.512,288.64 654.5,283.5 Z"/></g>
<g><path style="opacity:0.905" fill="#e7b117" d="M 710.5,301.5 C 710.5,321.833 710.5,342.167 710.5,362.5C 691.833,362.5 673.167,362.5 654.5,362.5C 654.5,351.5 654.5,340.5 654.5,329.5C 655.482,326.038 655.815,322.371 655.5,318.5C 656.612,320.599 657.279,322.933 657.5,325.5C 669.487,320.031 681.154,313.864 692.5,307C 695.405,305.714 698.405,304.714 701.5,304C 703.994,300.032 706.994,299.199 710.5,301.5 Z"/></g>
</svg>
