<?xml version="1.0" encoding="UTF-8"?>
<!DOCTYPE svg PUBLIC "-//W3C//DTD SVG 1.1//EN" "http://www.w3.org/Graphics/SVG/1.1/DTD/svg11.dtd">
<svg xmlns="http://www.w3.org/2000/svg" version="1.1" width="3840px" height="2160px" style="shape-rendering:geometricPrecision; text-rendering:geometricPrecision; image-rendering:optimizeQuality; fill-rule:evenodd; clip-rule:evenodd" xmlns:xlink="http://www.w3.org/1999/xlink">
<g><path style="opacity:0.992" fill="#29b5e8" d="M 396.5,661.5 C 416.972,661.823 433.138,670.49 445,687.5C 448.321,693.134 450.655,699.134 452,705.5C 452.667,779.167 452.667,852.833 452,926.5C 448.19,944.635 438.024,957.802 421.5,966C 404.652,972.788 388.319,971.788 372.5,963C 312.436,928.639 252.436,894.306 192.5,860C 167.04,839.028 162.54,814.195 179,785.5C 186.024,775.491 195.524,768.991 207.5,766C 223.775,762.246 239.108,764.579 253.5,773C 284.095,791.265 314.928,809.098 346,826.5C 346.333,787.167 346.667,747.833 347,708.5C 352.032,684.468 366.365,669.135 390,662.5C 391.268,662.616 392.602,662.949 394,663.5C 394.995,662.934 395.828,662.267 396.5,661.5 Z"/></g>
<g><path style="opacity:0.991" fill="#29b5e8" d="M 585.5,661.5 C 610.165,661.802 627.999,673.469 639,696.5C 640.616,700.347 641.616,704.347 642,708.5C 642.333,747.833 642.667,787.167 643,826.5C 677.289,806.606 711.789,787.106 746.5,768C 771.782,759.448 792.949,765.281 810,785.5C 826.181,813.765 822.014,838.598 797.5,860C 736.873,893.98 676.54,928.48 616.5,963.5C 587.454,976.858 563.288,970.858 544,945.5C 540.478,939.601 538.145,933.268 537,926.5C 536.333,852.833 536.333,779.167 537,705.5C 543.43,679.691 559.43,665.691 585,663.5C 585.464,662.906 585.631,662.239 585.5,661.5 Z"/></g>
<g><path style="opacity:0.993" fill="#29b5e8" d="M 2642.5,789.5 C 2657.13,789.307 2665.96,796.307 2669,810.5C 2669.67,947.167 2669.67,1083.83 2669,1220.5C 2667.19,1230.97 2661.19,1237.64 2651,1240.5C 2647.67,1239.17 2644.33,1239.17 2641,1240.5C 2631.96,1237.14 2626.29,1231.14 2624,1222.5C 2623.33,1084.17 2623.33,945.833 2624,807.5C 2626.44,797.556 2632.61,791.556 2642.5,789.5 Z"/></g>
<g><path style="opacity:0.978" fill="#29b5e8" d="M 3093.5,789.5 C 3108.12,789.292 3116.95,796.292 3120,810.5C 3120.33,902.5 3120.67,994.5 3121,1086.5C 3178.17,1031.33 3235.33,976.167 3292.5,921C 3304.2,915.039 3314.7,916.873 3324,926.5C 3329.91,935.185 3329.91,943.851 3324,952.5C 3308.92,968.456 3293.09,983.622 3276.5,998C 3269.13,1007.04 3260.8,1015.04 3251.5,1022C 3237.19,1036.64 3222.52,1050.97 3207.5,1065C 3246.49,1111.89 3285.33,1158.72 3324,1205.5C 3330.32,1218.14 3328.15,1228.97 3317.5,1238C 3315.48,1238.45 3313.65,1239.28 3312,1240.5C 3308,1240.5 3304,1240.5 3300,1240.5C 3296.64,1239.38 3293.48,1237.88 3290.5,1236C 3253.77,1191.62 3216.77,1147.62 3179.5,1104C 3179.83,1103.67 3180.17,1103.33 3180.5,1103C 3178.29,1101.13 3176.46,1098.96 3175,1096.5C 3157.61,1115.22 3139.61,1133.22 3121,1150.5C 3120.67,1173.83 3120.33,1197.17 3120,1220.5C 3117.91,1231.23 3111.91,1237.9 3102,1240.5C 3098.67,1239.17 3095.33,1239.17 3092,1240.5C 3084.7,1237.89 3079.03,1232.89 3075,1225.5C 3073.34,1086.88 3073.01,948.209 3074,809.5C 3076.66,799.012 3083.16,792.345 3093.5,789.5 Z"/></g>
<g><path style="opacity:0.976" fill="#29b5e8" d="M 2539.5,790.5 C 2545.84,790.334 2552.18,790.5 2558.5,791C 2577.97,796.852 2583.47,808.685 2575,826.5C 2572.08,830.092 2568.58,832.925 2564.5,835C 2558.84,835.724 2553,836.557 2547,837.5C 2537.56,835.809 2527.73,837.309 2517.5,842C 2515.67,843.833 2513.83,845.667 2512,847.5C 2508.52,854.668 2506.02,861.502 2504.5,868C 2505.08,868.893 2505.41,869.893 2505.5,871C 2503.78,887.448 2503.11,903.948 2503.5,920.5C 2515.84,920.333 2528.17,920.5 2540.5,921C 2556.61,923.116 2563.78,932.282 2562,948.5C 2558.83,959.339 2551.66,965.506 2540.5,967C 2527.83,967.333 2515.17,967.667 2502.5,968C 2503.66,1053.43 2503.83,1138.93 2503,1224.5C 2499.91,1233.26 2493.91,1238.93 2485,1241.5C 2482,1240.17 2479,1240.17 2476,1241.5C 2467.41,1239.24 2461.74,1233.9 2459,1225.5C 2458.5,1139.5 2458.33,1053.5 2458.5,967.5C 2446.83,967.667 2435.16,967.5 2423.5,967C 2414.89,965.587 2408.56,961.587 2404.5,955C 2405.63,953.984 2405.3,953.317 2403.5,953C 2403.31,951.57 2403.31,950.07 2403.5,948.5C 2401.08,932.603 2408.08,923.436 2424.5,921C 2435.83,920.5 2447.16,920.333 2458.5,920.5C 2457.89,899.429 2458.73,878.429 2461,857.5C 2470.07,815.206 2496.24,792.872 2539.5,790.5 Z"/></g>
<g><path style="opacity:0.924" fill="#29b5e8" d="M 3706.5,868.5 C 3742.56,869.603 3761.89,887.269 3764.5,921.5C 3761.43,959.343 3740.43,976.843 3701.5,974C 3677.07,968.581 3663.73,953.581 3661.5,929C 3657.19,908.134 3664.19,890.801 3682.5,877C 3690.16,872.837 3698.16,870.004 3706.5,868.5 Z M 3706.5,879.5 C 3734.29,879.458 3749.63,893.292 3752.5,921C 3748.14,955.352 3729.14,968.352 3695.5,960C 3680.25,952.054 3672.25,939.387 3671.5,922C 3672.03,906.595 3678.37,894.262 3690.5,885C 3695.72,882.429 3701.05,880.596 3706.5,879.5 Z M 3705.5,909.5 C 3708.38,909.736 3711.22,909.736 3714,909.5C 3722.14,912.552 3722.47,916.219 3715,920.5C 3712,919.167 3709,919.167 3706,920.5C 3704.18,916.941 3704.01,913.274 3705.5,909.5 Z"/></g>
<g><path style="opacity:0.95" fill="#29b5e8" d="M 3691.5,897.5 C 3700.84,897.334 3710.17,897.5 3719.5,898C 3728.72,899.893 3733.72,905.559 3734.5,915C 3733.64,920.716 3730.98,925.383 3726.5,929C 3730.79,933.422 3733.46,938.589 3734.5,944.5C 3729.79,944.827 3725.12,944.493 3720.5,943.5C 3718.17,940.167 3715.83,936.833 3713.5,933.5C 3710.57,932.516 3707.57,932.183 3704.5,932.5C 3704.79,936.437 3704.46,940.27 3703.5,944C 3699.51,944.499 3695.51,944.666 3691.5,944.5C 3691.5,928.833 3691.5,913.167 3691.5,897.5 Z M 3705.5,909.5 C 3704.01,913.274 3704.18,916.941 3706,920.5C 3709,919.167 3712,919.167 3715,920.5C 3722.47,916.219 3722.14,912.552 3714,909.5C 3711.22,909.736 3708.38,909.736 3705.5,909.5 Z"/></g>
<g><path style="opacity:0.979" fill="#29b5e8" d="M 1145.5,919.5 C 1183.95,918.808 1217.45,933.142 1246,962.5C 1249.72,967.275 1252.39,972.609 1254,978.5C 1254.91,986.294 1252.07,992.461 1245.5,997C 1237.95,999.613 1230.95,998.613 1224.5,994C 1212.65,984.488 1199.98,976.154 1186.5,969C 1161.08,959.275 1136.41,960.942 1112.5,974C 1098.76,980.974 1091.09,992.14 1089.5,1007.5C 1090.53,1016.06 1094.53,1022.89 1101.5,1028C 1105.83,1030.33 1110.17,1032.67 1114.5,1035C 1144.29,1045.93 1174.29,1056.26 1204.5,1066C 1226.63,1073.5 1244.79,1086.33 1259,1104.5C 1278.22,1142.36 1273.38,1176.86 1244.5,1208C 1222.17,1227.81 1196.67,1237.97 1168,1238.5C 1167,1239.17 1166,1239.83 1165,1240.5C 1158.33,1240.5 1151.67,1240.5 1145,1240.5C 1111.33,1237.92 1080.5,1226.08 1052.5,1205C 1046.09,1200.22 1042.42,1193.88 1041.5,1186C 1044.02,1169.91 1053.02,1164.25 1068.5,1169C 1083.06,1177.61 1098.39,1184.61 1114.5,1190C 1138.04,1197.04 1161.71,1196.71 1185.5,1189C 1195.51,1184.91 1204.68,1179.41 1213,1172.5C 1223.98,1157.94 1225.31,1143.94 1217,1130.5C 1205.22,1119.68 1191.72,1111.52 1176.5,1106C 1162.96,1101.49 1149.46,1096.99 1136,1092.5C 1135,1092.83 1134,1093.17 1133,1093.5C 1115.73,1088.19 1098.9,1081.69 1082.5,1074C 1043.76,1051.14 1031.93,1018.3 1047,975.5C 1049.49,969.843 1052.49,964.51 1056,959.5C 1080.5,934.277 1110.33,920.944 1145.5,919.5 Z"/></g>
<g><path style="opacity:0.982" fill="#29b5e8" d="M 1336.5,920.5 C 1343.92,920.362 1350.42,922.695 1356,927.5C 1358.6,931.507 1360.76,935.34 1362.5,939C 1362.36,944.264 1362.36,949.43 1362.5,954.5C 1402.21,920.934 1446.87,912.434 1496.5,929C 1547.94,951.073 1576.94,989.407 1583.5,1044C 1583.5,1102.67 1583.5,1161.33 1583.5,1220C 1582.53,1225.59 1579.87,1230.59 1575.5,1235C 1572.58,1236.71 1569.75,1238.54 1567,1240.5C 1563,1240.5 1559,1240.5 1555,1240.5C 1545.55,1238.05 1539.89,1232.05 1538,1222.5C 1537.67,1162.83 1537.33,1103.17 1537,1043.5C 1530.47,1000.96 1505.63,975.457 1462.5,967C 1418.37,964.157 1386.87,982.657 1368,1022.5C 1364.16,1031.05 1362.66,1039.89 1363.5,1049C 1362.83,1049.67 1362.17,1050.33 1361.5,1051C 1361.83,1108 1362.17,1165 1362.5,1222C 1360.04,1230.81 1354.21,1236.98 1345,1240.5C 1341.6,1240.19 1337.93,1240.19 1334,1240.5C 1326.42,1237.92 1321.09,1232.92 1318,1225.5C 1317.33,1130.17 1317.33,1034.83 1318,939.5C 1320.35,929.32 1326.51,922.987 1336.5,920.5 Z"/></g>
<g><path style="opacity:0.983" fill="#29b5e8" d="M 1761.5,920.5 C 1830.17,918.402 1880.67,947.402 1913,1007.5C 1940.36,1069.95 1934.02,1128.62 1894,1183.5C 1866.94,1215.35 1832.94,1234.35 1792,1240.5C 1781.67,1240.5 1771.33,1240.5 1761,1240.5C 1701.08,1230.32 1658.75,1196.99 1634,1140.5C 1610.16,1068.7 1625.66,1007.2 1680.5,956C 1704.15,936.508 1731.15,924.674 1761.5,920.5 Z M 1770.5,964.5 C 1810.36,965.181 1841.53,981.181 1864,1012.5C 1890,1055.13 1891.17,1098.46 1867.5,1142.5C 1840.94,1183.76 1803.27,1200.59 1754.5,1193C 1707.59,1179.42 1679.43,1148.59 1670,1100.5C 1664.1,1055.51 1677.94,1018.01 1711.5,988C 1729,974.58 1748.66,966.747 1770.5,964.5 Z"/></g>
<g><path style="opacity:0.981" fill="#29b5e8" d="M 1967.5,920.5 C 1978.63,920.48 1986.46,925.48 1991,935.5C 2019.04,1010.75 2046.71,1085.42 2074,1159.5C 2096.33,1108.76 2118,1058.09 2139,1007.5C 2146.67,996.278 2156.83,993.111 2169.5,998C 2173.24,999.738 2176.41,1002.24 2179,1005.5C 2200.99,1056.82 2222.99,1108.16 2245,1159.5C 2260.27,1116.79 2276.44,1073.29 2293.5,1029C 2304.6,996.077 2316.76,963.243 2330,930.5C 2342.37,917.288 2354.7,917.288 2367,930.5C 2370.25,936.452 2371.25,942.785 2370,949.5C 2335.98,1041.2 2301.64,1133.2 2267,1225.5C 2263.58,1233.62 2257.92,1238.62 2250,1240.5C 2246.67,1240.5 2243.33,1240.5 2240,1240.5C 2231.79,1237.79 2225.95,1232.46 2222.5,1224.5C 2222.71,1223.91 2223.04,1223.41 2223.5,1223C 2222.5,1222 2221.5,1221 2220.5,1220C 2220.5,1218.67 2220.5,1217.33 2220.5,1216C 2219.5,1215 2218.5,1214 2217.5,1213C 2217.96,1212.59 2218.29,1212.09 2218.5,1211.5C 2197.92,1165.72 2178.09,1120.06 2159,1074.5C 2139.65,1122.41 2119.15,1170.24 2097.5,1218C 2095.87,1229.32 2089.37,1236.82 2078,1240.5C 2075.33,1240.5 2072.67,1240.5 2070,1240.5C 2064.58,1239.13 2059.92,1236.46 2056,1232.5C 2019.94,1139.4 1984.27,1044.74 1949,948.5C 1947.05,933.645 1953.22,924.311 1967.5,920.5 Z"/></g>
<g><path style="opacity:0.977" fill="#29b5e8" d="M 2850.5,920.5 C 2898.85,917.284 2940.01,932.617 2974,966.5C 2974.33,956.833 2974.67,947.167 2975,937.5C 2981.77,921.239 2993.27,916.739 3009.5,924C 3015.07,927.778 3018.57,932.945 3020,939.5C 3020.17,986.5 3020.33,1033.5 3020.5,1080.5C 3020.5,1127.88 3019.83,1175.04 3018.5,1222C 3018.96,1222.41 3019.29,1222.91 3019.5,1223.5C 3016.14,1231.7 3010.3,1237.36 3002,1240.5C 2998.67,1239.17 2995.33,1239.17 2992,1240.5C 2986.19,1238.68 2981.53,1235.35 2978,1230.5C 2976.72,1228.28 2975.72,1225.95 2975,1223.5C 2974.67,1213.5 2974.33,1203.5 2974,1193.5C 2950.62,1217.98 2922.12,1233.32 2888.5,1239.5C 2887.03,1239.28 2885.53,1238.94 2884,1238.5C 2883.33,1239.17 2882.67,1239.83 2882,1240.5C 2871.11,1239.9 2860.44,1239.9 2850,1240.5C 2781.87,1228.06 2737.87,1188.39 2718,1121.5C 2704.23,1056.58 2721.4,1001.41 2769.5,956C 2793.27,936.692 2820.27,924.859 2850.5,920.5 Z M 2860.5,964.5 C 2918.34,966.838 2955.17,995.838 2971,1051.5C 2980.02,1093.92 2970.19,1131.25 2941.5,1163.5C 2909.67,1194.16 2872.67,1202.66 2830.5,1189C 2797.06,1174.92 2775.06,1150.92 2764.5,1117C 2763.69,1115.06 2762.69,1113.06 2761.5,1111C 2761.96,1110.59 2762.29,1110.09 2762.5,1109.5C 2755.79,1078.8 2758.96,1050.13 2772,1023.5C 2782.8,1005.03 2797.3,990.198 2815.5,979C 2829.59,970.904 2844.59,966.07 2860.5,964.5 Z"/></g>
<g><path style="opacity:0.98" fill="#29b5e8" d="M 3480.5,920.5 C 3523.4,917.216 3561.4,929.049 3594.5,956C 3633.23,990.625 3652.23,1031.96 3651.5,1080C 3646.32,1088.82 3638.82,1093.65 3629,1094.5C 3548,1094.17 3467,1093.83 3386,1093.5C 3391.6,1139.89 3416.77,1172.06 3461.5,1190C 3522.03,1206.61 3569.2,1188.78 3603,1136.5C 3614.31,1124 3626.31,1123.34 3639,1134.5C 3644.32,1141.47 3645.66,1149.13 3643,1157.5C 3614.99,1203.43 3574.99,1231.1 3523,1240.5C 3508.56,1240.3 3494.22,1240.3 3480,1240.5C 3430.31,1233.02 3391.64,1208.69 3364,1167.5C 3338.76,1125.46 3332.76,1080.8 3346,1033.5C 3368.18,968.686 3413.01,931.019 3480.5,920.5 Z M 3483.5,965.5 C 3543.59,963.787 3583.26,991.287 3602.5,1048C 3600.9,1048.27 3599.4,1048.77 3598,1049.5C 3528.88,1048.29 3459.71,1048.29 3390.5,1049.5C 3389.78,1047.21 3389.45,1045.05 3389.5,1043C 3406.14,999.542 3437.47,973.709 3483.5,965.5 Z"/></g>
<g><path style="opacity:0.99" fill="#29b5e8" d="M 120.5,925.5 C 133.284,924.357 145.284,926.857 156.5,933C 214.824,967.135 273.157,1000.47 331.5,1033C 354.19,1047.55 362.69,1068.05 357,1094.5C 353.217,1106.25 346.383,1115.75 336.5,1123C 276.873,1156.48 217.539,1190.48 158.5,1225C 136.739,1237.21 115.406,1236.21 94.5,1222C 75.9832,1204.79 70.9832,1185.12 79.5,1163C 79.1667,1162.67 78.8333,1162.33 78.5,1162C 82.5955,1152.9 88.5955,1145.23 96.5,1139C 126.98,1120.59 157.98,1102.92 189.5,1086C 193.183,1084.16 196.516,1081.83 199.5,1079C 165.873,1060.52 132.54,1041.52 99.5,1022C 89.7342,1015.46 82.7342,1007.12 78.5,997C 78.5,995.667 78.5,994.333 78.5,993C 77.8333,992.667 77.1667,992.333 76.5,992C 76.8333,991 77.1667,990 77.5,989C 75.7797,988.193 75.4464,986.693 76.5,984.5C 74.1585,953.65 88.8252,933.983 120.5,925.5 Z"/></g>
<g><path style="opacity:0.99" fill="#29b5e8" d="M 852.5,925.5 C 883.675,923.825 903.842,937.825 913,967.5C 916.044,986.035 911.21,1002.2 898.5,1016C 867.331,1035.16 835.664,1053.5 803.5,1071C 799.341,1074.25 795.008,1077.25 790.5,1080C 824.5,1099.67 858.5,1119.33 892.5,1139C 910.937,1153.64 917.437,1172.48 912,1195.5C 900.91,1223.78 880.41,1236.28 850.5,1233C 847.107,1232.2 843.774,1231.2 840.5,1230C 776.035,1193.4 712.035,1156.73 648.5,1120C 633.769,1106.34 628.102,1090.68 631.5,1073C 630.795,1071.58 630.461,1070.24 630.5,1069C 633.991,1055.77 641.325,1044.77 652.5,1036C 713.152,1002.68 773.152,968.345 832.5,933C 838.96,929.588 845.627,927.088 852.5,925.5 Z"/></g>
<g><path style="opacity:0.989" fill="#29b5e8" d="M 479.5,982.5 C 489.506,982.334 499.506,982.5 509.5,983C 510.833,983.667 512.167,984.333 513.5,985C 535.005,1007.17 557.172,1028.67 580,1049.5C 582.63,1053.13 585.63,1056.47 589,1059.5C 590.439,1061.27 591.439,1063.27 592,1065.5C 592.667,1074.83 592.667,1084.17 592,1093.5C 591.529,1095.25 590.862,1096.91 590,1098.5C 564.805,1124.03 539.305,1149.19 513.5,1174C 512.167,1174.67 510.833,1175.33 509.5,1176C 499.5,1176.67 489.5,1176.67 479.5,1176C 478.167,1175.33 476.833,1174.67 475.5,1174C 449.657,1149.16 424.157,1123.99 399,1098.5C 398.333,1097.17 397.667,1095.83 397,1094.5C 396.333,1084.83 396.333,1075.17 397,1065.5C 397.471,1063.75 398.138,1062.09 399,1060.5C 425.212,1033.62 452.045,1007.62 479.5,982.5 Z M 490.5,1046.5 C 494.869,1045.92 498.869,1046.76 502.5,1049C 510.677,1056.01 518.344,1063.51 525.5,1071.5C 526.892,1074.01 527.892,1076.67 528.5,1079.5C 527.545,1083.37 526.212,1087.04 524.5,1090.5C 517.122,1096.66 509.455,1103.49 501.5,1111C 496.833,1114.33 492.167,1114.33 487.5,1111C 479.97,1103.14 472.136,1095.64 464,1088.5C 460.031,1083.33 459.698,1078 463,1072.5C 471.76,1063.24 480.927,1054.57 490.5,1046.5 Z"/></g>
<g><path style="opacity:0.992" fill="#29b5e8" d="M 394.5,1188.5 C 425.13,1188.31 444.297,1202.97 452,1232.5C 452.667,1306.17 452.667,1379.83 452,1453.5C 444.25,1481.37 426.916,1496.04 400,1497.5C 371.193,1495.44 353.527,1479.78 347,1450.5C 346.667,1411.17 346.333,1371.83 346,1332.5C 315.588,1349.62 285.421,1367.12 255.5,1385C 232.909,1399.21 210.575,1398.88 188.5,1384C 170.141,1366.89 164.975,1346.39 173,1322.5C 177.732,1313.2 184.232,1305.37 192.5,1299C 255.039,1263.39 317.705,1227.72 380.5,1192C 385.224,1190.51 389.891,1189.34 394.5,1188.5 Z"/></g>
<g><path style="opacity:0.991" fill="#29b5e8" d="M 584.5,1188.5 C 595.91,1187.91 606.577,1190.41 616.5,1196C 675.909,1230.4 735.576,1264.4 795.5,1298C 817.672,1314.5 824.505,1336 816,1362.5C 806.529,1383.42 790.195,1394.42 767,1395.5C 757.249,1395.1 748.082,1392.6 739.5,1388C 707.578,1369.12 675.411,1350.62 643,1332.5C 642.972,1373.87 642.305,1415.2 641,1456.5C 632.369,1482.22 615.035,1495.89 589,1497.5C 561.519,1495.39 544.185,1480.72 537,1453.5C 536.333,1379.83 536.333,1306.17 537,1232.5C 543.471,1207.52 559.304,1192.86 584.5,1188.5 Z"/></g>
</svg>
